SplineFontDB: 3.2
FontName: QuasarOpen-Black
FullName: Quasar Open Black
FamilyName: Quasar Open
Weight: Black
Copyright: Copyright (c) 2023, neilb
UComments: "2023-12-15: Created with FontForge (http://fontforge.org)"
Version: 000.001
ItalicAngle: 0
UnderlinePosition: -100
UnderlineWidth: 50
Ascent: 800
Descent: 200
InvalidEm: 0
LayerCount: 2
Layer: 0 0 "Back" 1
Layer: 1 0 "Fore" 0
XUID: [1021 441 2049316168 16478]
StyleMap: 0x0000
FSType: 0
OS2Version: 0
OS2_WeightWidthSlopeOnly: 0
OS2_UseTypoMetrics: 1
CreationTime: 1702635369
ModificationTime: 1703851297
OS2TypoAscent: 0
OS2TypoAOffset: 1
OS2TypoDescent: 0
OS2TypoDOffset: 1
OS2TypoLinegap: 90
OS2WinAscent: 0
OS2WinAOffset: 1
OS2WinDescent: 0
OS2WinDOffset: 1
HheadAscent: 0
HheadAOffset: 1
HheadDescent: 0
HheadDOffset: 1
OS2Vendor: 'PfEd'
MarkAttachClasses: 1
DEI: 91125
Encoding: UnicodeFull
UnicodeInterp: none
NameList: AGL For New Fonts
DisplaySize: -48
AntiAlias: 1
FitToEm: 1
WinInfo: 16 16 8
BeginPrivate: 0
EndPrivate
BeginChars: 1114112 25

StartChar: i
Encoding: 105 105 0
Width: 335
Flags: HMW
LayerCount: 2
Fore
SplineSet
68 669 m 4
 68 724 113 769 168 769 c 4
 223 769 268 724 268 669 c 4
 268 614 223 569 168 569 c 4
 113 569 68 614 68 669 c 4
80 500 m 1
 255 500 l 1
 255 0 l 1
 80 0 l 1
 80 500 l 1
EndSplineSet
EndChar

StartChar: o
Encoding: 111 111 1
Width: 600
Flags: HMW
LayerCount: 2
Back
SplineSet
40 250 m 0
 40 394 156 510 300 510 c 0
 444 510 560 394 560 250 c 0
 560 106 444 -10 300 -10 c 0
 156 -10 40 106 40 250 c 0
70 250 m 0
 70 121 166 15 300 15 c 0
 434 15 530 121 530 250 c 0
 530 379 434 485 300 485 c 0
 166 485 70 379 70 250 c 0
EndSplineSet
Fore
SplineSet
215 250 m 3
 215 207 249 165 300 165 c 3
 351 165 385 207 385 250 c 3
 385 293 351 335 300 335 c 3
 249 335 215 293 215 250 c 3
  Spiro
    215 250 o
    225.239 208.001 o
    254.445 177.014 o
    300 165 o
    345.555 177.014 o
    374.761 208.001 o
    385 250 o
    374.761 291.999 o
    345.555 322.986 o
    300 335 o
    254.445 322.986 o
    225.239 291.999 o
    0 0 z
  EndSpiro
40 250 m 3
 40 391.003448235 149 510 300 510 c 3
 453 510 560 388.007042079 560 250 c 3
 560 111 453 -10 300 -10 c 3
 150 -10 40 109 40 250 c 3
  Spiro
    40 250 o
    73.121 381.736 o
    164.264 474.882 o
    300 510 o
    437.514 474.882 o
    527.767 381.736 o
    560 250 o
    527.767 118.264 o
    437.514 25.118 o
    300 -10 o
    164.264 25.118 o
    73.121 118.264 o
    0 0 z
  EndSpiro
EndSplineSet
EndChar

StartChar: n
Encoding: 110 110 2
Width: 610
Flags: HMW
LayerCount: 2
Back
SplineSet
75 280 m 0
 75 407 178 510 305 510 c 0
 432 510 535 407 535 280 c 0
 535 153 432 50 305 50 c 0
 178 50 75 153 75 280 c 0
250 280 m 0
 250 310 275 335 305 335 c 0
 335 335 360 310 360 280 c 0
 360 250 335 225 305 225 c 0
 275 225 250 250 250 280 c 0
220 250 m 3
 220 205 252 165 305 165 c 3
 358 165 390 205 390 250 c 3
 390 295 358 335 305 335 c 3
 252 335 220 295 220 250 c 3
  Spiro
    220 250 o
    230.239 208.001 o
    259.445 177.014 o
    305 165 o
    350.555 177.014 o
    379.761 208.001 o
    390 250 o
    379.761 291.999 o
    350.555 322.986 o
    305 335 o
    259.445 322.986 o
    230.239 291.999 o
    0 0 z
  EndSpiro
45 250 m 3
 45 395 151 510 305 510 c 3
 463 510 565 395 565 250 c 3
 565 105 463 -10 305 -10 c 3
 151 -10 45 105 45 250 c 3
  Spiro
    45 250 o
    78.121 381.736 o
    169.264 474.882 o
    305 510 o
    442.514 474.882 o
    532.767 381.736 o
    565 250 o
    532.767 118.264 o
    442.514 25.118 o
    305 -10 o
    169.264 25.118 o
    78.121 118.264 o
    0 0 z
  EndSpiro
EndSplineSet
Fore
SplineSet
70 270 m 2
 70 419 188 510 305 510 c 0
 422 510 540 419 540 270 c 2
 540 0 l 9
 365 0 l 17
 365 270 l 2
 365 313 338 335 305 335 c 7
 272 335 245 313 245 270 c 6
 245 0 l 9
 70 0 l 17
 70 270 l 2
EndSplineSet
EndChar

StartChar: a
Encoding: 97 97 3
Width: 630
Flags: HMW
LayerCount: 2
Back
SplineSet
40 250 m 0
 40 394 156 510 300 510 c 0
 444 510 560 394 560 250 c 0
 560 106 444 -10 300 -10 c 0
 156 -10 40 106 40 250 c 0
215 250 m 0
 215 297 253 335 300 335 c 0
 347 335 385 297 385 250 c 0
 385 203 347 165 300 165 c 0
 253 165 215 203 215 250 c 0
EndSplineSet
Fore
SplineSet
300 335 m 3
 250 335 215 294 215 250 c 0
 215 205 251 165 300 165 c 0
 312.019857621 165 320.12109375 166.654296875 332 170.997070312 c 1
 332 -8.1669921875 l 1
 324.494140625 -9.0341796875 312.482421875 -10 300 -10 c 0
 156 -10 40 105 40 249 c 0
 40 393 156 510 300 510 c 0
 431 510 550 410 550 248 c 2
 550 0 l 9
 375 0 l 17
 375 246 l 2
 375 309 338 335 300 335 c 3
EndSplineSet
EndChar

StartChar: g
Encoding: 103 103 4
Width: 596
Flags: HW
LayerCount: 2
Back
SplineSet
553 332 m 1
 298 332 l 2
 258 332 218 300 218 252 c 3
 218 208 254 172 298 172 c 0
 342 172 378 208 378 252 c 0
 378 265 375 278 369 289 c 1
 549 289 l 1
 551 275 553 260 553 245 c 0
 553 139 489 49 397 10 c 0
 366 -3 331 22 296 22 c 0
 263 22 233 -4 204 8 c 0
 110 45 43 137 43 245 c 0
 43 386 157 500 298 500 c 2
 553 500 l 1
 553 332 l 1
218 -83 m 0
 218 -127 254 -163 298 -163 c 0
 342 -163 378 -127 378 -83 c 0
 378 -39 342 -3 298 -3 c 0
 254 -3 218 -39 218 -83 c 0
43 -83 m 0
 43 58 157 172 298 172 c 0
 439 172 553 58 553 -83 c 4
 553 -224 439 -338 298 -338 c 0
 157 -338 43 -224 43 -83 c 0
EndSplineSet
Fore
SplineSet
218 -83 m 0
 218 -127 254 -163 298 -163 c 0
 342 -163 378 -127 378 -83 c 0
 378 -39 342 -3 298 -3 c 0
 254 -3 218 -39 218 -83 c 0
43 -93 m 0
 43 48 172 127 298 127 c 0
 424 127 553 48 553 -93 c 0
 553 -219 439 -338 298 -338 c 0
 157 -338 43 -219 43 -93 c 0
298 332 m 2
 258 332 218 300 218 252 c 3
 218 208 254 172 298 172 c 0
 342 172 378 208 378 252 c 0
 378 265 375 278 369 289 c 1
 549 289 l 1
 551 275 553 260 553 245 c 0
 553 104 424 35 298 35 c 0
 172 35 43 114 43 255 c 0
 43 381 157 500 298 500 c 2
 553 500 l 1
 553 332 l 1
 298 332 l 2
EndSplineSet
EndChar

StartChar: r
Encoding: 114 114 5
Width: 421
Flags: HW
LayerCount: 2
Back
SplineSet
255 250 m 7
 255 207 289 165 340 165 c 7
 391 165 425 207 425 250 c 7
 425 293 391 335 340 335 c 7
 289 335 255 293 255 250 c 7
  Spiro
    255 250 o
    265.239 208.001 o
    294.445 177.014 o
    340 165 o
    385.555 177.014 o
    414.761 208.001 o
    425 250 o
    414.761 291.999 o
    385.555 322.986 o
    340 335 o
    294.445 322.986 o
    265.239 291.999 o
    0 0 z
  EndSpiro
80 250 m 7
 80 391.00390625 189 510 340 510 c 7
 493 510 600 388.006835938 600 250 c 7
 600 111 493 -10 340 -10 c 7
 190 -10 80 109 80 250 c 7
  Spiro
    80 250 o
    113.121 381.736 o
    204.264 474.882 o
    340 510 o
    477.514 474.882 o
    567.767 381.736 o
    600 250 o
    567.767 118.264 o
    477.514 25.118 o
    340 -10 o
    204.264 25.118 o
    113.121 118.264 o
    0 0 z
  EndSpiro
EndSplineSet
Fore
SplineSet
340 510 m 3
 364 510 385 507 401 503 c 1
 401 328 l 1
 386 333 368 335 355 335 c 3
 275.991210938 335 255 283 255 250 c 2
 255 0 l 1
 80 0 l 1
 80 250 l 2
 80 398 195.996296347 510 340 510 c 3
EndSplineSet
EndChar

StartChar: x
Encoding: 120 120 6
Width: 525
Flags: HW
LayerCount: 2
Back
SplineSet
49.5 500 m 1
 126.704101562 500 227.099609375 474.1171875 261.6875 391.905273438 c 1
 296.5234375 474.376953125 397.346679688 500 474.5 500 c 1
 474.5 325 l 1
 383.5 325 349.5 293 349.5 250 c 0
 349.5 207 383.5 175 474.5 175 c 1
 474.5 0 l 1
 397.857421875 0 297.061523438 25.6123046875 262.112304688 108.06640625 c 1
 227.517578125 25.7861328125 126.983398438 0 49.5 0 c 1
 49.5 175 l 1
 140.5 175 174.5 207 174.5 250 c 0
 174.5 293 140.5 325 49.5 325 c 1
 49.5 500 l 1
19.5 500 m 1
 242.5 500 349.5 388.006835938 349.5 250 c 3
 349.5 111 242.5 0 19.5 0 c 1
 19.5 175 l 1
 140.5 175 174.5 207 174.5 250 c 1
 174.5 293 140.5 325 19.5 325 c 1
 19.5 500 l 1
504.5 0 m 1
 284.5 0 174.5 109 174.5 250 c 3
 174.5 391.00390625 283.5 500 504.5 500 c 1
 504.5 325 l 1
 383.5 325 349.5 293 349.5 250 c 3
 349.5 207 383.5 175 504.5 175 c 1
 504.5 0 l 1
EndSplineSet
Fore
SplineSet
50 500 m 1
 174 500 242 441 262 403 c 1
 282 441 351 500 475 500 c 1
 475 325 l 1
 376 325 350 289 350 250 c 0
 350 211 376 175 475 175 c 1
 475 0 l 1
 351 0 282 59 262 97 c 1
 242 59 174 0 50 0 c 1
 50 175 l 1
 149 175 175 211 175 250 c 0
 175 289 149 325 50 325 c 1
 50 500 l 1
EndSplineSet
EndChar

StartChar: q
Encoding: 113 113 7
Width: 630
Flags: HW
LayerCount: 2
Fore
SplineSet
300 335 m 3
 250 335 215 294 215 250 c 0
 215 205 251 165 300 165 c 0
 312.019857621 165 320.12109375 166.654296875 332 170.997070312 c 1
 332 -8.1669921875 l 1
 324.494140625 -9.0341796875 312.482421875 -10 300 -10 c 0
 156 -10 40 105 40 249 c 0
 40 393 156 510 300 510 c 0
 431 510 550 410 550 248 c 2
 550 -328 l 9
 375 -328 l 17
 375 246 l 2
 375 309 338 335 300 335 c 3
EndSplineSet
EndChar

StartChar: l
Encoding: 108 108 11
Width: 335
Flags: HW
LayerCount: 2
Fore
SplineSet
80 828 m 1
 255 828 l 1
 255 0 l 1
 80 0 l 1
 80 828 l 1
EndSplineSet
EndChar

StartChar: h
Encoding: 104 104 13
Width: 610
Flags: HW
LayerCount: 2
Back
SplineSet
75 828 m 5
 250 828 l 5
 250 0 l 5
 75 0 l 5
 75 828 l 5
75 280 m 6
 75 419 191 510 305 510 c 4
 419 510 535 419 535 280 c 6
 535 0 l 13
 360 0 l 21
 360 280 l 6
 360 313 335 335 305 335 c 7
 275 335 250 313 250 280 c 6
 250 0 l 13
 75 0 l 21
 75 280 l 6
EndSplineSet
Fore
SplineSet
70 828 m 1
 245 828 l 1
 245 0 l 1
 70 0 l 1
 70 828 l 1
200 270 m 2
 200 399 226 510 340 510 c 0
 464 510 540 419 540 270 c 2
 540 0 l 9
 365 0 l 17
 365 270 l 2
 365 313 338 335 305 335 c 3
 272 335 245 313 245 270 c 2
 245 210 l 9
 200 210 l 17
 200 270 l 2
EndSplineSet
EndChar

StartChar: m
Encoding: 109 109 14
Width: 897
Flags: HW
LayerCount: 2
Back
SplineSet
361 270 m 2
 361 419 479 510 596 510 c 0
 713 510 831 419 831 270 c 2
 831 0 l 9
 656 0 l 17
 656 270 l 2
 656 313 629 335 596 335 c 3
 563 335 536 313 536 270 c 2
 536 0 l 9
 361 0 l 17
 361 270 l 2
66 270 m 2
 66 419 184 510 301 510 c 0
 418 510 536 419 536 270 c 2
 536 0 l 9
 361 0 l 17
 361 270 l 2
 361 313 334 335 301 335 c 3
 268 335 241 313 241 270 c 2
 241 0 l 9
 66 0 l 17
 66 270 l 2
361 280 m 2
 361 419 477 510 591 510 c 0
 705 510 821 419 821 280 c 2
 821 0 l 9
 646 0 l 17
 646 280 l 2
 646 313 621 335 591 335 c 3
 561 335 536 313 536 280 c 2
 536 0 l 9
 361 0 l 17
 361 280 l 2
76 280 m 2
 76 419 192 510 306 510 c 0
 420 510 536 419 536 280 c 2
 536 0 l 9
 361 0 l 17
 361 280 l 2
 361 313 336 335 306 335 c 3
 276 335 251 313 251 280 c 2
 251 0 l 9
 76 0 l 17
 76 280 l 2
EndSplineSet
Fore
SplineSet
417 270 m 2
 417 419 488 510 622 510 c 0
 726 510 827 419 827 270 c 2
 827 0 l 9
 652 0 l 17
 652 270 l 2
 652 313 622 335 592 335 c 3
 562 335 532 313 532 270 c 2
 532 0 l 9
 417 0 l 17
 417 270 l 2
70 270 m 2
 70 419 171 510 275 510 c 0
 409 510 480 419 480 270 c 2
 480 0 l 9
 365 0 l 17
 365 270 l 2
 365 313 335 335 305 335 c 3
 275 335 245 313 245 270 c 2
 245 0 l 9
 70 0 l 17
 70 270 l 2
EndSplineSet
EndChar

StartChar: e
Encoding: 101 101 15
Width: 600
Flags: HW
LayerCount: 2
Back
SplineSet
215 250 m 3
 215 207 249 165 300 165 c 3
 351 165 385 207 385 250 c 3
 385 293 351 335 300 335 c 3
 249 335 215 293 215 250 c 3
  Spiro
    215 250 o
    225.239 208.001 o
    254.445 177.014 o
    300 165 o
    345.555 177.014 o
    374.761 208.001 o
    385 250 o
    374.761 291.999 o
    345.555 322.986 o
    300 335 o
    254.445 322.986 o
    225.239 291.999 o
    0 0 z
  EndSpiro
40 250 m 3
 40 391.003448235 149 510 300 510 c 3
 453 510 560 388.007042079 560 250 c 3
 560 111 453 -10 300 -10 c 3
 150 -10 40 109 40 250 c 3
  Spiro
    40 250 o
    73.121 381.736 o
    164.264 474.882 o
    300 510 o
    437.514 474.882 o
    527.767 381.736 o
    560 250 o
    527.767 118.264 o
    437.514 25.118 o
    300 -10 o
    164.264 25.118 o
    73.121 118.264 o
    0 0 z
  EndSpiro
EndSplineSet
Fore
SplineSet
300 175 m 2
 560 175 l 1
 560 0 l 1
 300 0 l 2
 150 0 40 109 40 250 c 3
 40 391 149 510 300 510 c 0
 453 510 560 388 560 250 c 0
 560 239 559 229 558 218 c 1
 379 218 l 1
 383 228 385 239 385 250 c 0
 385 293 351 335 300 335 c 0
 249 335 215 293 215 255 c 0
 215 217 249 175 300 175 c 2
EndSplineSet
EndChar

StartChar: y
Encoding: 121 121 16
Width: 610
Flags: HW
LayerCount: 2
Back
SplineSet
395 220 m 6
 395 91 379 -10 265 -10 c 4
 151 -10 75 81 75 220 c 6
 75 500 l 13
 250 500 l 21
 250 220 l 6
 250 187 275 165 305 165 c 7
 335 165 360 187 360 220 c 6
 360 280 l 13
 395 280 l 21
 395 220 l 6
190 -78 m 3
 190 -121 224 -163 275 -163 c 3
 326 -163 360 -121 360 -78 c 3
 360 -35 326 7 275 7 c 3
 224 7 190 -35 190 -78 c 3
  Spiro
    190 -78 o
    200.239 -119.999 o
    229.445 -150.986 o
    275 -163 o
    320.555 -150.986 o
    349.761 -119.999 o
    360 -78 o
    349.761 -36.001 o
    320.555 -5.014 o
    275 7 o
    229.445 -5.014 o
    200.239 -36.001 o
    0 0 z
  EndSpiro
15 -78 m 3
 15 63.00390625 124 182 275 182 c 3
 428 182 535 60.0068359375 535 -78 c 3
 535 -217 428 -338 275 -338 c 3
 125 -338 15 -219 15 -78 c 3
  Spiro
    15 -78 o
    48.121 53.736 o
    139.264 146.882 o
    275 182 o
    412.514 146.882 o
    502.767 53.736 o
    535 -78 o
    502.767 -209.736 o
    412.514 -302.882 o
    275 -338 o
    139.264 -302.882 o
    48.121 -209.736 o
    0 0 z
  EndSpiro
EndSplineSet
Fore
SplineSet
410 230 m 2
 410 101 384 -10 270 -10 c 0
 146 -10 70 81 70 230 c 2
 70 500 l 9
 245 500 l 17
 245 230 l 2
 245 187 272 165 305 165 c 3
 338 165 365 187 365 230 c 2
 365 290 l 9
 410 290 l 17
 410 230 l 2
154 -132 m 1
 196 -157 222.989257812 -163 258 -163 c 3
 325.553710938 -163 365 -130 365 -78 c 2
 365 500 l 1
 540 500 l 1
 540 -82 l 2
 540 -226 424.00390625 -338 280 -338 c 3
 234 -338 196 -328 154 -307 c 1
 154 -132 l 1
EndSplineSet
EndChar

StartChar: uni0261
Encoding: 609 609 18
Width: 630
Flags: HW
LayerCount: 2
Fore
SplineSet
375 -78 m 2
 375 246 l 2
 375 309 338 335 300 335 c 3
 250 335 215 294 215 250 c 0
 215 205 251 165 300 165 c 0
 312.019857621 165 320.12109375 166.654296875 332 170.997070312 c 1
 332 -8.1669921875 l 1
 324.494140625 -9.0341796875 312.482421875 -10 300 -10 c 0
 156 -10 40 105 40 249 c 0
 40 393 156 510 300 510 c 0
 431 510 550 410 550 248 c 2
 550 -82 l 2
 550 -226 434.00390625 -338 290 -338 c 3
 244 -338 206 -328 164 -307 c 1
 164 -132 l 1
 206 -157 232.989257812 -163 268 -163 c 3
 335.553710938 -163 375 -130 375 -78 c 2
EndSplineSet
EndChar

StartChar: f
Encoding: 102 102 19
Width: 421
Flags: HW
LayerCount: 2
Fore
SplineSet
340 838 m 0
 364 838 385 835 401 831 c 1
 401 656 l 1
 386 661 368 663 355 663 c 0
 275.991210938 663 255 611 255 578 c 2
 255 500 l 1
 392 500 l 1
 392 332 l 1
 255 332 l 1
 255 0 l 1
 80 0 l 1
 80 578 l 2
 80 726 195.99609375 838 340 838 c 0
EndSplineSet
EndChar

StartChar: t
Encoding: 116 116 20
Width: 421
Flags: HW
LayerCount: 2
Fore
SplineSet
340 -10 m 0
 195.99609375 -10 80 102 80 250 c 2
 80 669 l 1
 255 669 l 1
 255 500 l 1
 392 500 l 1
 392 332 l 1
 255 332 l 1
 255 250 l 2
 255 217 275.991210938 165 355 165 c 0
 368 165 386 167 401 172 c 1
 401 -3 l 1
 385 -7 364 -10 340 -10 c 0
EndSplineSet
EndChar

StartChar: j
Encoding: 106 106 21
Width: 410
Flags: HW
LayerCount: 2
Back
SplineSet
144 669 m 0
 144 724 189 769 244 769 c 0
 299 769 344 724 344 669 c 0
 344 614 299 569 244 569 c 0
 189 569 144 614 144 669 c 0
157 -328 m 9
 157 500 l 1
 332 500 l 1
 332 -328 l 17
 157 -328 l 9
EndSplineSet
Fore
SplineSet
143 669 m 0
 143 724 188 769 243 769 c 0
 298 769 343 724 343 669 c 0
 343 614 298 569 243 569 c 0
 188 569 143 614 143 669 c 0
156 500 m 1
 331 500 l 1
 331 -78 l 2
 331 -226 215.00390625 -338 71 -338 c 0
 47 -338 26 -335 10 -331 c 1
 10 -156 l 1
 25 -161 43 -163 56 -163 c 0
 135.008789062 -163 156 -111 156 -78 c 2
 156 500 l 1
EndSplineSet
EndChar

StartChar: c
Encoding: 99 99 22
Width: 401
Flags: HW
LayerCount: 2
Back
SplineSet
300 510 m 3
 324 510 345 507 361 503 c 1
 361 328 l 1
 346 333 328 335 315 335 c 3
 235.991210938 335 215 283 215 250 c 2
 215 0 l 1
 40 0 l 1
 40 250 l 2
 40 398 155.99609375 510 300 510 c 3
EndSplineSet
Fore
SplineSet
313 165 m 3
 330 165 345 167 361 172 c 1
 361 -3 l 1
 345 -7 324 -10 300 -10 c 3
 150 -10 40 109 40 250 c 3
 40 391.003448235 149 510 300 510 c 3
 324 510 345 507 361 503 c 1
 361 328 l 1
 345 333 330.029386366 335 313 335 c 3
 246.992424677 335 215 293 215 250 c 3
 215 207 247 165 313 165 c 3
EndSplineSet
EndChar

StartChar: s
Encoding: 115 115 23
Width: 507
Flags: HW
LayerCount: 2
Back
SplineSet
166 250 m 3
 166 398 281.99609375 510 426 510 c 3
 450 510 471 507 487 503 c 1
 487 328 l 1
 472 333 454 335 441 335 c 3
 361.991210938 335 341 283 341 250 c 3
 341 102 225.00390625 -10 81 -10 c 3
 57 -10 36 -7 20 -3 c 1
 20 172 l 1
 35 167 53 165 66 165 c 3
 145.008789062 165 166 217 166 250 c 3
EndSplineSet
Fore
SplineSet
166 270 m 0
 177 417 302 510 406 510 c 3
 440 510 471 507 487 503 c 1
 487 328 l 1
 472 333 454 335 441 335 c 3
 362 335 345.641540955 292.027865493 341 230 c 0
 330 83 205 -10 101 -10 c 3
 67 -10 36 -7 20 -3 c 1
 20 172 l 1
 35 167 53 165 66 165 c 3
 145 165 161.358459045 207.972134507 166 270 c 0
EndSplineSet
EndChar

StartChar: v
Encoding: 118 118 24
Width: 610
Flags: HWO
LayerCount: 2
Fore
SplineSet
540 230 m 2
 540 81 422 0 305 0 c 2
 70 0 l 9
 70 500 l 1
 245 500 l 17
 245 175 l 17
 305 175 l 2
 338 175 365 187 365 230 c 2
 365 500 l 9
 540 500 l 17
 540 230 l 2
EndSplineSet
EndChar
